<svg viewBox="0 0 28 28" fill="none" xmlns="http://www.w3.org/2000/svg">
    <path fill-rule="evenodd" clip-rule="evenodd"
        d="M4.23676 5.72236C5.27516 4.60941 6.74778 3.99414 8.46557 3.99414H19.8941C21.6164 3.99414 23.088 4.60911 24.1237 5.72392C25.1516 6.8304 25.6753 8.34739 25.6753 10.0285V17.9835C25.6753 19.6604 25.1511 21.1752 24.1214 22.2802C23.0841 23.3934 21.6103 24.0076 19.8839 24.0076H8.46557C6.74348 24.0076 5.27053 23.3929 4.23289 22.2807C3.20256 21.1763 2.67529 19.6617 2.67529 17.9835V10.0285C2.67529 8.34461 3.20548 6.82768 4.23676 5.72236ZM5.6991 7.08674C5.07025 7.76075 4.67529 8.76098 4.67529 10.0285V17.9835C4.67529 19.2465 5.06805 20.244 5.69531 20.9164C6.31525 21.5809 7.23744 22.0076 8.46557 22.0076H19.8839C21.1179 22.0076 22.0398 21.5804 22.6582 20.9168C23.284 20.2451 23.6753 19.2478 23.6753 17.9835V10.0285C23.6753 8.7582 23.2835 7.75803 22.6584 7.08518C22.0411 6.42066 21.122 5.99414 19.8941 5.99414H8.46557C7.24336 5.99414 6.32084 6.42036 5.6991 7.08674Z"
        fill="currentColor" />
    <path fill-rule="evenodd" clip-rule="evenodd"
        d="M8.86029 17.7309C8.53971 18.0213 8.41943 18.3805 8.41943 18.6875C8.41943 19.2398 7.97172 19.6875 7.41943 19.6875C6.86715 19.6875 6.41943 19.2398 6.41943 18.6875C6.41943 17.8605 6.7464 16.9473 7.51754 16.2487C8.2911 15.5479 9.42091 15.1426 10.8918 15.1426C12.3608 15.1426 13.4902 15.5443 14.2642 16.2419C15.0366 16.9381 15.3642 17.8497 15.3642 18.6774C15.3642 19.2297 14.9164 19.6774 14.3642 19.6774C13.8119 19.6774 13.3642 19.2297 13.3642 18.6774C13.3642 18.3711 13.2445 18.0153 12.9252 17.7276C12.6075 17.4412 12.0007 17.1426 10.8918 17.1426C9.78481 17.1426 9.17844 17.4427 8.86029 17.7309Z"
        fill="currentColor" />
    <path fill-rule="evenodd" clip-rule="evenodd"
        d="M10.8919 10.3105C10.2194 10.3105 9.67383 10.8561 9.67383 11.5286C9.67383 12.2011 10.2193 12.7466 10.8919 12.7466C11.5644 12.7466 12.1099 12.2011 12.1099 11.5286C12.1099 10.856 11.5644 10.3105 10.8919 10.3105ZM7.67383 11.5286C7.67383 9.7515 9.11479 8.31055 10.8919 8.31055C12.669 8.31055 14.1099 9.75154 14.1099 11.5286C14.1099 13.3057 12.669 14.7466 10.8919 14.7466C9.11482 14.7466 7.67383 13.3057 7.67383 11.5286Z"
        fill="currentColor" />
    <path fill-rule="evenodd" clip-rule="evenodd"
        d="M15.65 12.0586C15.6576 11.5063 16.1114 11.0648 16.6636 11.0724L20.7149 11.1279C21.2671 11.1355 21.7086 11.5893 21.7011 12.1415C21.6935 12.6937 21.2397 13.1353 20.6874 13.1277L16.6362 13.0722C16.084 13.0646 15.6424 12.6108 15.65 12.0586ZM17.1686 16.3912C17.1686 15.8389 17.6163 15.3912 18.1686 15.3912H20.701C21.2533 15.3912 21.701 15.8389 21.701 16.3912C21.701 16.9434 21.2533 17.3912 20.701 17.3912H18.1686C17.6163 17.3912 17.1686 16.9434 17.1686 16.3912Z"
        fill="currentColor" />
</svg>